# xmcd
#
# Track frame offsets:
#	150
#	13265
#	30652
#	47989
#	61930
#	75975
#	92187
#	102702
#	124882
#	141297
#	159317
#	171015
#	189830
#	209395
#	224137
#	237395
#	247975
#	267550
#	280205
#	294022
#	309250
#	324810
#
# Disc length: 4557 seconds
#
# Revision: 0
# Processed by: cddbd v1.5.1PL2 Copyright (c) Steve Scherf et al.
# Submitted via: EasyCDDAExtractor 9.1.2.1
#
DISCID=3d11cb16
DTITLE=Don McLean - Christmastime!
DYEAR=1900
DGENRE=Christma
TTITLE0=Winterwonderland
TTITLE1=O, Little Town of Bethlehem
TTITLE2=Blue Christmas
TTITLE3=The Christmas Waltz
TTITLE4=Santa Claus is Coming to Town
TTITLE5=Toyland
TTITLE6=Rudolph the Red Nosed Reindeer
TTITLE7=I'll Be Home for Christmas/Have Yourself a Merryt Little Christmas
TTITLE8=The Christmas Song
TTITLE9=White Christmas
TTITLE10=Let it Snow!, Let it Snow!, Let it Snow!
TTITLE11=Silent Night
TTITLE12=O, Holy Night
TTITLE13=I Heard the Bells on Christmas Day
TTITLE14=Go Tell it on the Mountain
TTITLE15=God Rest Ye Merry Gentlemen
TTITLE16=The Last Month of the Year
TTITLE17=The Burgundeon Carol
TTITLE18=Little Child
TTITLE19=It Came Upon a Midnight Clear
TTITLE20=Pretty Paper
TTITLE21=The Night Before Christmas
EXTD=
EXTT0=
EXTT1=
EXTT2=
EXTT3=
EXTT4=
EXTT5=
EXTT6=
EXTT7=
EXTT8=
EXTT9=
EXTT10=
EXTT11=
EXTT12=
EXTT13=
EXTT14=
EXTT15=
EXTT16=
EXTT17=
EXTT18=
EXTT19=
EXTT20=
EXTT21=
PLAYORDER=
